@startuml
title
Adressbücher
end title
package de.compgen.genwiki2024 {
  class address << Entity >> {
   company_name : TEXT
   district : TEXT
   firstname : TEXT
   id : INTEGER
   lastname : TEXT
   location : TEXT
   location_code : TEXT
   marital_status : TEXT
   occupation : TEXT
   official : TEXT
   owner : TEXT
   page : TEXT
   reference_person_firstname : TEXT
   reference_person_occupation : TEXT
   street : TEXT
  }
  class weimarTH1851 << Entity >> {
   alternate_residence : TEXT
  }
  class weimarTH1853 << Entity >> {
   Nummer : TEXT
   location_extra : TEXT
  }
  address <|-- weimarTH1851
  address <|-- weimarTH1853
}

' BITPlan Corporate identity skin params
' Copyright (c) 2015-2020 BITPlan GmbH
' see http://wiki.bitplan.com/PlantUmlSkinParams#BITPlanCI
' skinparams generated by com.bitplan.restmodelmanager
skinparam note {
  BackGroundColor #FFFFFF
  FontSize 12
  ArrowColor #FF8000
  BorderColor #FF8000
  FontColor black
  FontName Technical
}
skinparam component {
  BackGroundColor #FFFFFF
  FontSize 12
  ArrowColor #FF8000
  BorderColor #FF8000
  FontColor black
  FontName Technical
}
skinparam package {
  BackGroundColor #FFFFFF
  FontSize 12
  ArrowColor #FF8000
  BorderColor #FF8000
  FontColor black
  FontName Technical
}
skinparam usecase {
  BackGroundColor #FFFFFF
  FontSize 12
  ArrowColor #FF8000
  BorderColor #FF8000
  FontColor black
  FontName Technical
}
skinparam activity {
  BackGroundColor #FFFFFF
  FontSize 12
  ArrowColor #FF8000
  BorderColor #FF8000
  FontColor black
  FontName Technical
}
skinparam classAttribute {
  BackGroundColor #FFFFFF
  FontSize 12
  ArrowColor #FF8000
  BorderColor #FF8000
  FontColor black
  FontName Technical
}
skinparam interface {
  BackGroundColor #FFFFFF
  FontSize 12
  ArrowColor #FF8000
  BorderColor #FF8000
  FontColor black
  FontName Technical
}
skinparam class {
  BackGroundColor #FFFFFF
  FontSize 12
  ArrowColor #FF8000
  BorderColor #FF8000
  FontColor black
  FontName Technical
}
skinparam object {
  BackGroundColor #FFFFFF
  FontSize 12
  ArrowColor #FF8000
  BorderColor #FF8000
  FontColor black
  FontName Technical
}
hide Circle
' end of skinparams '
@enduml
