@startuml
hide circle

package geocoding {
   class Location {
      locationKind
      level
      name
      identifiers
      wikidataid
      coordinates
      comment
  }
   note top of Location:  geocoding
  Location "n" <-- "1 partOf"  Location

  package geography {
  class Continent {
  }
  class WorldRegion {
  }
  class Country {
  }
  class Region {
  }
  class City {
  }
  class Place {
  }
  Continent "1" -- "n regions" WorldRegion
  Continent "1" - "n countries" Country
  WorldRegion "1" -- "n countries" Country
  Country "1" -- "n regions" Region
  Country "1" -- "1 cities" City
  Region "1" -- "n cities" City
  City "1" -"n places" Place
  Location <|-- Continent
  Location <|-- WorldRegion
  Location <|-- Country
  Location <|--  Region
  Location <|-- City
  Location <|-- Place
  }
  note top of geography: administrative hierarchy
}
' BITPlan Corporate identity skin params
' Copyright (c) 2015-2020 BITPlan GmbH
' see http://wiki.bitplan.com/PlantUmlSkinParams#BITPlanCI
' skinparams generated by com.bitplan.restmodelmanager
skinparam note {
  BackGroundColor #FFFFFF
  FontSize 12
  ArrowColor #FF8000
  BorderColor #FF8000
  FontColor black
  FontName Technical
}
skinparam component {
  BackGroundColor #FFFFFF
  FontSize 12
  ArrowColor #FF8000
  BorderColor #FF8000
  FontColor black
  FontName Technical
}
skinparam package {
  BackGroundColor #FFFFFF
  FontSize 12
  ArrowColor #FF8000
  BorderColor #FF8000
  FontColor black
  FontName Technical
}
skinparam usecase {
  BackGroundColor #FFFFFF
  FontSize 12
  ArrowColor #FF8000
  BorderColor #FF8000
  FontColor black
  FontName Technical
}
skinparam activity {
  BackGroundColor #FFFFFF
  FontSize 12
  ArrowColor #FF8000
  BorderColor #FF8000
  FontColor black
  FontName Technical
}
skinparam classAttribute {
  BackGroundColor #FFFFFF
  FontSize 12
  ArrowColor #FF8000
  BorderColor #FF8000
  FontColor black
  FontName Technical
}
skinparam interface {
  BackGroundColor #FFFFFF
  FontSize 12
  ArrowColor #FF8000
  BorderColor #FF8000
  FontColor black
  FontName Technical
}
skinparam class {
  BackGroundColor #FFFFFF
  FontSize 12
  ArrowColor #FF8000
  BorderColor #FF8000
  FontColor black
  FontName Technical
}
skinparam object {
  BackGroundColor #FFFFFF
  FontSize 12
  ArrowColor #FF8000
  BorderColor #FF8000
  FontColor black
  FontName Technical
}
' end of skinparams '
@enduml